name C:\Users\r0593348\3dpredictsim\Results\Batchsim_tmt_linear_v2\Pog_s1_tmt_aCst_d02_k500_ig24.mot
datacolumns 128
datarows 4
range 0.53642581 0.56861135
endheader
time	pelvis_tilt	pelvis_list	pelvis_rotation	pelvis_tx	pelvis_ty	pelvis_tz	hip_flexion_l	hip_adduction_l	hip_rotation_l	hip_flexion_r	hip_adduction_r	hip_rotation_r	knee_angle_l	knee_angle_r	ankle_angle_l	ankle_angle_r	subtalar_angle_l	subtalar_angle_r	tmt_angle_l	tmt_angle_r	mtp_angle_l	mtp_angle_r	lumbar_extension	lumbar_bending	lumbar_rotation	arm_flex_l	arm_add_l	arm_rot_l	arm_flex_r	arm_add_r	arm_rot_r	elbow_flex_l	elbow_flex_r	pro_sup_l	pro_sup_r	glut_med1_l/activation	glut_med2_l/activation	glut_med3_l/activation	glut_min1_l/activation	glut_min2_l/activation	glut_min3_l/activation	semimem_l/activation	semiten_l/activation	bifemlh_l/activation	bifemsh_l/activation	sar_l/activation	add_long_l/activation	add_brev_l/activation	add_mag1_l/activation	add_mag2_l/activation	add_mag3_l/activation	tfl_l/activation	pect_l/activation	grac_l/activation	glut_max1_l/activation	glut_max2_l/activation	glut_max3_l/activation	iliacus_l/activation	psoas_l/activation	quad_fem_l/activation	gem_l/activation	peri_l/activation	rect_fem_l/activation	vas_med_l/activation	vas_int_l/activation	vas_lat_l/activation	med_gas_l/activation	lat_gas_l/activation	soleus_l/activation	tib_post_l/activation	flex_dig_l/activation	flex_hal_l/activation	tib_ant_l/activation	per_brev_l/activation	per_long_l/activation	per_tert_l/activation	ext_dig_l/activation	ext_hal_l/activation	ercspn_l/activation	intobl_l/activation	extobl_l/activation	glut_med1_r/activation	glut_med2_r/activation	glut_med3_r/activation	glut_min1_r/activation	glut_min2_r/activation	glut_min3_r/activation	semimem_r/activation	semiten_r/activation	bifemlh_r/activation	bifemsh_r/activation	sar_r/activation	add_long_r/activation	add_brev_r/activation	add_mag1_r/activation	add_mag2_r/activation	add_mag3_r/activation	tfl_r/activation	pect_r/activation	grac_r/activation	glut_max1_r/activation	glut_max2_r/activation	glut_max3_r/activation	iliacus_r/activation	psoas_r/activation	quad_fem_r/activation	gem_r/activation	peri_r/activation	rect_fem_r/activation	vas_med_r/activation	vas_int_r/activation	vas_lat_r/activation	med_gas_r/activation	lat_gas_r/activation	soleus_r/activation	tib_post_r/activation	flex_dig_r/activation	flex_hal_r/activation	tib_ant_r/activation	per_brev_r/activation	per_long_r/activation	per_tert_r/activation	ext_dig_r/activation	ext_hal_r/activation	ercspn_r/activation	intobl_r/activation	extobl_r/activation	
          0.53642581	         -2.90772129	         -1.03336142	         -4.82126075	          0.67053226	          0.87087257	          0.00227071	         27.31025131	         -0.45880332	         -1.81944580	        -17.40222832	          1.40354867	          6.43240927	         -8.63364923	         -6.73843780	          6.27209336	         -8.33356341	          4.09533798	          9.10880434	          0.06962980	          2.10561652	         -0.09412927	         26.05270738	          0.53883785	          3.05529267	          1.62205708	         -8.96717414	        -13.44996821	         13.81287259	          4.01397099	        -13.48229735	         13.06550298	         16.50483770	         25.64812977	         86.51662706	         86.51662706	          0.11571148	          0.05000225	          0.06213026	          0.05000040	          0.05000069	          0.05000992	          0.05894040	          0.05894042	          0.05894047	          0.05000156	          0.05000247	          0.05000210	          0.06282119	          0.13008310	          0.13798919	          0.11850706	          0.05000760	          0.05001403	          0.05893888	          0.06947923	          0.10597452	          0.12603388	          0.05000032	          0.05000034	          0.16045779	          0.05000699	          0.06578930	          0.05000073	          0.06973535	          0.11515830	          0.05001283	          0.05894040	          0.05894035	          0.05894042	          0.05000109	          0.05001344	          0.05893789	          0.47027573	          0.27223844	          0.16928675	          0.21290665	          0.50246148	          0.24549925	          0.05000039	          0.13416211	          0.13248813	          0.29678260	          0.08691485	          0.07756810	          0.26844868	          0.16121664	          0.08881287	          0.05000340	          0.05000032	          0.05000026	          0.05000037	          0.08767007	          0.07315071	          0.05000085	          0.05000114	          0.05000326	          0.05000143	          0.22840310	          0.05001163	          0.05000151	          0.05000646	          0.05000392	          0.05000308	          0.30567757	          0.56829661	          0.05000056	          0.05000102	          0.06115552	          0.23193423	          0.08974509	          0.09095814	          0.07588333	          0.17797161	          0.25296488	          0.21675181	          0.19200219	          0.19945309	          0.25238164	          0.05000004	          0.09600710	          0.16108314	          0.05000028	          0.05000008	          0.05000026	          0.05000003	          0.05000006	          0.05000012	
          0.54715432	         -2.88826549	         -1.06922383	         -4.96874866	          0.68738591	          0.86966805	          0.00211777	         26.77014805	         -0.27660866	         -1.59910666	        -17.13001170	          1.27112627	          6.16807307	         -8.77821265	         -9.01045764	          5.63725674	         -9.01664484	          3.67052457	         10.18076391	          0.08151162	          1.90604912	         -0.07784479	         26.82374256	          0.75806224	          2.85600039	          1.67531611	        -10.12259781	        -13.45285939	         13.65470235	          3.76480587	        -13.51636551	         13.38044833	         16.54261837	         26.46869746	         86.51662706	         86.51662706	          0.09815978	          0.05000316	          0.05270627	          0.05655255	          0.05000632	          0.05000123	          0.05000005	          0.05000015	          0.05000010	          0.05000012	          0.05000272	          0.05001419	          0.05329289	          0.22166979	          0.20303746	          0.12785305	          0.05000065	          0.05000442	          0.05000042	          0.05894081	          0.08990153	          0.15605493	          0.05000069	          0.05000096	          0.30683520	          0.11558304	          0.15848219	          0.08190263	          0.28561090	          0.30575929	          0.23601799	          0.05000001	          0.05000004	          0.05000000	          0.05000019	          0.05000264	          0.05000067	          0.56778502	          0.29686682	          0.18059484	          0.43743177	          0.55644731	          0.28391220	          0.05000004	          0.11381162	          0.11239156	          0.25176498	          0.07373113	          0.06580222	          0.22772901	          0.13676244	          0.07534129	          0.05000252	          0.05000031	          0.05000038	          0.05000028	          0.07437209	          0.14322768	          0.18365066	          0.11369597	          0.05000960	          0.05000210	          0.19375769	          0.07451491	          0.05000477	          0.05000362	          0.05000217	          0.05000260	          0.25931065	          0.48209418	          0.05895772	          0.05894218	          0.05894045	          0.19675312	          0.13416078	          0.13416242	          0.11167733	          0.15097585	          0.21459373	          0.18387366	          0.16287831	          0.16919938	          0.21409919	          0.05000003	          0.08144437	          0.13666655	          0.05000022	          0.05000013	          0.05000022	          0.05000054	          0.07977339	          0.06531353	
          0.55788284	         -2.86271632	         -1.08848346	         -5.09400057	          0.70446229	          0.86829440	          0.00197490	         26.10286066	         -0.12938245	         -1.33678255	        -16.76200172	          1.13214921	          5.89246019	         -9.39362016	        -11.46529526	          4.96613439	         -9.63588435	          3.22482352	         11.21672819	         -0.06373958	          1.61790543	         -0.13131036	         27.14023353	          0.99035498	          2.62782959	          1.71805184	        -11.27923017	        -13.46726760	         13.56182791	          3.45455191	        -13.55640721	         13.64588778	         16.57236397	         27.29093237	         86.51662706	         86.51662706	          0.27433651	          0.19594414	          0.24619673	          0.05000054	          0.05000057	          0.25591156	          0.08159225	          0.05000115	          0.08174536	          0.05000026	          0.05000108	          0.06947977	          0.08931103	          0.18804593	          0.17224050	          0.13505382	          0.05000154	          0.06947118	          0.06558683	          0.05000077	          0.07626511	          0.13238394	          0.05485390	          0.05000329	          0.26029271	          0.09805092	          0.18906084	          0.06947917	          0.24228782	          0.25937998	          0.20021744	          0.05894033	          0.05894040	          0.05894036	          0.05088874	          0.05894052	          0.05894053	          0.48166027	          0.27692782	          0.15320164	          0.37107975	          0.59173330	          0.24084690	          0.05000002	          0.09654803	          0.09534336	          0.25457178	          0.06254720	          0.05582105	          0.19318603	          0.11601761	          0.06391315	          0.06365858	          0.05000044	          0.05000064	          0.05000011	          0.06309118	          0.14414051	          0.34229073	          0.09645457	          0.05894490	          0.11976141	          0.16436751	          0.06321328	          0.05000113	          0.05008819	          0.05893540	          0.05893972	          0.21997694	          0.42934654	          0.05001676	          0.05000217	          0.05000019	          0.16690847	          0.11381063	          0.11381199	          0.09473757	          0.12807496	          0.18204292	          0.15598263	          0.13817203	          0.14353444	          0.18162351	          0.05000139	          0.06916847	          0.14706351	          0.05000042	          0.16178135	          0.05000353	          0.05000000	          0.06767291	          0.06153283	
          0.56861135	         -2.83408357	         -1.09329631	         -5.19511937	          0.72154591	          0.86673589	          0.00183413	         25.30635561	          0.00631088	         -1.05649873	        -16.29423273	          0.99279204	          5.60963878	        -10.00014664	        -14.08803318	          4.40827870	        -10.07180496	          2.75212506	         12.18038531	         -0.00954331	          1.23914620	         -0.15622092	         26.73630665	          1.21575166	          2.37560749	          1.74986043	        -12.39240835	        -13.49363982	         13.55987625	          3.11939002	        -13.60307876	         13.87570372	         16.56728935	         28.10268649	         86.51662706	         86.51662706	          0.32787736	          0.32543565	          0.37045206	          0.18116440	          0.18354138	          0.22934804	          0.06921607	          0.09002886	          0.07034535	          0.07723778	          0.05000277	          0.05894079	          0.07576389	          0.15952230	          0.18897912	          0.16657373	          0.05000037	          0.05893414	          0.08190152	          0.21811033	          0.17372049	          0.17557470	          0.05000022	          0.05000022	          0.22081009	          0.08317845	          0.18110394	          0.05894018	          0.20553628	          0.22003584	          0.16984738	          0.05000005	          0.05000010	          0.05000001	          0.05000001	          0.05000024	          0.05000021	          0.61712976	          0.30539452	          0.15606339	          0.63333265	          0.64429877	          0.41140162	          0.05000038	          0.08190307	          0.08088113	          0.21595697	          0.05305971	          0.05000003	          0.16388363	          0.09841948	          0.05421853	          0.08732734	          0.05000123	          0.05000079	          0.05000118	          0.05894221	          0.17532425	          0.30834701	          0.08182459	          0.05000611	          0.10159583	          0.13943545	          0.08190884	          0.05000179	          0.05000073	          0.05000050	          0.05000063	          0.18660961	          0.37875386	          0.05000006	          0.05000037	          0.05000037	          0.14159082	          0.09654721	          0.09654837	          0.08036726	          0.10864781	          0.15442963	          0.13232229	          0.11721343	          0.12176262	          0.15407403	          0.08672918	          0.09577271	          0.12475614	          0.10509918	          0.21696126	          0.10223797	          0.08652869	          0.05740790	          0.05219919	
